<?xml version="1.0" encoding="UTF-8" standalone="no"?>
<svg
   xmlns:osb="http://www.openswatchbook.org/uri/2009/osb"
   xmlns:dc="http://purl.org/dc/elements/1.1/"
   xmlns:cc="http://creativecommons.org/ns#"
   xmlns:rdf="http://www.w3.org/1999/02/22-rdf-syntax-ns#"
   xmlns:svg="http://www.w3.org/2000/svg"
   xmlns="http://www.w3.org/2000/svg"
   xmlns:xlink="http://www.w3.org/1999/xlink"
   xmlns:sodipodi="http://sodipodi.sourceforge.net/DTD/sodipodi-0.dtd"
   xmlns:inkscape="http://www.inkscape.org/namespaces/inkscape"
   width="286.10086mm"
   height="94.574997mm"
   viewBox="0 0 286.10086 94.574997"
   version="1.1"
   id="svg8"
   inkscape:version="1.0.2-2 (e86c870879, 2021-01-15)"
   sodipodi:docname="logbook3.svg">
  <defs
     id="defs2">
    <linearGradient
       inkscape:collect="always"
       id="linearGradient3060">
      <stop
         style="stop-color:#3399cc;stop-opacity:1;"
         offset="0"
         id="stop3056" />
      <stop
         style="stop-color:#3399cc;stop-opacity:0;"
         offset="1"
         id="stop3058" />
    </linearGradient>
    <linearGradient
       inkscape:collect="always"
       id="linearGradient3042">
      <stop
         style="stop-color:#3399cc;stop-opacity:1;"
         offset="0"
         id="stop3038" />
      <stop
         style="stop-color:#3399cc;stop-opacity:0;"
         offset="1"
         id="stop3040" />
    </linearGradient>
    <linearGradient
       id="linearGradient3002"
       osb:paint="solid">
      <stop
         style="stop-color:#3399cc;stop-opacity:1;"
         offset="0"
         id="stop3000" />
    </linearGradient>
    <linearGradient
       inkscape:collect="always"
       id="linearGradient2994">
      <stop
         style="stop-color:#000000;stop-opacity:1;"
         offset="0"
         id="stop2990" />
      <stop
         style="stop-color:#000000;stop-opacity:0;"
         offset="1"
         id="stop2992" />
    </linearGradient>
    <rect
       x="-152.87817"
       y="85.526253"
       width="131.49661"
       height="74.835464"
       id="rect1049" />
    <linearGradient
       inkscape:collect="always"
       xlink:href="#linearGradient2994"
       id="linearGradient2998"
       x1="115.45662"
       y1="58.93214"
       x2="245.76741"
       y2="58.93214"
       gradientUnits="userSpaceOnUse" />
    <radialGradient
       inkscape:collect="always"
       xlink:href="#linearGradient3042"
       id="radialGradient3044"
       cx="523.18913"
       cy="523.61567"
       fx="523.18913"
       fy="523.61567"
       r="38.383908"
       gradientTransform="matrix(1,0,0,0.8929762,0,56.039337)"
       gradientUnits="userSpaceOnUse" />
    <radialGradient
       inkscape:collect="always"
       xlink:href="#linearGradient3060"
       id="radialGradient3062"
       cx="255.61428"
       cy="524.38895"
       fx="255.61428"
       fy="524.38895"
       r="38.272094"
       gradientTransform="matrix(1,0,0,0.90539292,0,49.610906)"
       gradientUnits="userSpaceOnUse" />
  </defs>
  <sodipodi:namedview
     id="base"
     pagecolor="#ffffff"
     bordercolor="#666666"
     borderopacity="1.0"
     inkscape:pageopacity="0.0"
     inkscape:pageshadow="2"
     inkscape:zoom="0.98994949"
     inkscape:cx="463.60493"
     inkscape:cy="259.81496"
     inkscape:document-units="mm"
     inkscape:current-layer="layer1"
     inkscape:document-rotation="0"
     showgrid="false"
     inkscape:window-width="1920"
     inkscape:window-height="1017"
     inkscape:window-x="-8"
     inkscape:window-y="-8"
     inkscape:window-maximized="1" />
  <metadata
     id="metadata5">
    <rdf:RDF>
      <cc:Work
         rdf:about="">
        <dc:format>image/svg+xml</dc:format>
        <dc:type
           rdf:resource="http://purl.org/dc/dcmitype/StillImage" />
        <dc:title></dc:title>
      </cc:Work>
    </rdf:RDF>
  </metadata>
  <g
     inkscape:label="Warstwa 1"
     inkscape:groupmode="layer"
     id="layer1"
     transform="translate(40.996852,-60.05774)">
    <g
       id="layer5"
       inkscape:label="Silniki"
       transform="translate(-45.28609,56.702537)"
       style="fill:#6d6d6d">
      <g
         id="g1038"
         transform="matrix(0.48856142,0,0,0.48856142,98.169204,-42.056378)"
         style="fill:#6d6d6d">
        <path
           style="fill:#6d6d6d;fill-opacity:1;stroke-width:0.440132"
           d="m 171.03934,276.75512 c -10.43841,-1.45154 -19.20735,-8.23741 -22.18082,-17.16468 -0.77975,-2.34104 -0.92277,-3.6215 -0.78712,-7.04721 0.22889,-5.78038 2.0717,-9.73892 6.63863,-14.26036 5.53949,-5.48432 12.32107,-8.18119 20.5725,-8.18119 13.85695,0 25.23841,8.51037 27.31289,20.42294 1.88635,10.83224 -6.89689,22.35357 -19.465,25.533 -3.34046,0.84506 -8.77537,1.15858 -12.09108,0.6975 z m 9.33389,-4.87433 c 6.42578,-1.16493 12.44633,-5.61831 15.22072,-11.25875 1.35986,-2.76464 1.47505,-3.32588 1.47505,-7.18675 0,-3.63365 -0.1578,-4.52469 -1.1923,-6.73242 -0.65576,-1.39947 -2.29753,-3.70322 -3.64838,-5.11944 -4.35112,-4.56168 -9.87979,-6.77067 -16.94579,-6.77067 -7.02037,0 -12.14144,2.06415 -16.76804,6.75869 -4.21975,4.28171 -5.85594,9.332 -4.82902,14.90526 0.71119,3.8598 2.29559,6.62367 5.52395,9.63616 5.61367,5.2383 12.99244,7.24929 21.16381,5.76792 z"
           id="path1030" />
        <rect
           style="fill:#6d6d6d;fill-opacity:1;stroke-width:0.197584"
           id="rect1034"
           width="5.7217002"
           height="11.947325"
           x="172.70735"
           y="221.31097" />
      </g>
      <g
         id="g1044"
         transform="matrix(0.48856142,0,0,0.48856142,27.33322,-41.781729)"
         style="fill:#6d6d6d">
        <path
           style="fill:#6d6d6d;fill-opacity:1;stroke-width:0.440132"
           d="m 171.03934,276.75512 c -10.43841,-1.45154 -19.20735,-8.23741 -22.18082,-17.16468 -0.77975,-2.34104 -0.92277,-3.6215 -0.78712,-7.04721 0.22889,-5.78038 2.0717,-9.73892 6.63863,-14.26036 5.53949,-5.48432 12.32107,-8.18119 20.5725,-8.18119 13.85695,0 25.23841,8.51037 27.31289,20.42294 1.88635,10.83224 -6.89689,22.35357 -19.465,25.533 -3.34046,0.84506 -8.77537,1.15858 -12.09108,0.6975 z m 9.33389,-4.87433 c 6.42578,-1.16493 12.44633,-5.61831 15.22072,-11.25875 1.35986,-2.76464 1.47505,-3.32588 1.47505,-7.18675 0,-3.63365 -0.1578,-4.52469 -1.1923,-6.73242 -0.65576,-1.39947 -2.29753,-3.70322 -3.64838,-5.11944 -4.35112,-4.56168 -9.87979,-6.77067 -16.94579,-6.77067 -7.02037,0 -12.14144,2.06415 -16.76804,6.75869 -4.21975,4.28171 -5.85594,9.332 -4.82902,14.90526 0.71119,3.8598 2.29559,6.62367 5.52395,9.63616 5.61367,5.2383 12.99244,7.24929 21.16381,5.76792 z"
           id="path1040" />
        <rect
           style="fill:#6d6d6d;fill-opacity:1;stroke-width:0.197584"
           id="rect1042"
           width="5.7217002"
           height="11.947325"
           x="172.70735"
           y="221.31097" />
      </g>
    </g>
    <g
       id="layer2"
       inkscape:label="Statecznik"
       style="display:inline;fill:#000000"
       transform="translate(-45.28609,56.702537)">
      <g
         id="g1002"
         transform="matrix(0.48856142,0,0,0.48856142,99.321038,-16.101833)"
         style="fill:#000000">
        <path
           style="fill:#000000;fill-opacity:1;stroke-width:0.267269"
           d="m 91.36409,108.03278 -2.898312,-0.10704 0.151103,-1.5275 c 0.08311,-0.84013 0.217882,-2.48967 0.299501,-3.66566 0.689501,-9.934567 2.282587,-25.742151 3.488131,-34.611402 2.107269,-15.503287 4.76122,-26.258387 6.922108,-28.05177 3.124129,-2.592795 7.246539,15.661298 10.167849,45.023383 0.69261,6.961383 1.98371,22.654149 1.87505,22.790429 -0.10521,0.13195 -17.051585,0.25864 -20.00543,0.14956 z"
           id="path988" />
        <path
           style="fill:#000000;fill-opacity:1;stroke-width:0.188988"
           d="m 110.4734,96.630687 c -0.33317,-1.660488 -1.42913,-9.763998 -1.33348,-9.859653 0.24368,-0.243676 41.45515,-0.59464 46.85804,-0.399052 8.87362,0.32123 13.36658,0.924364 13.37882,1.795968 0.008,0.546398 -3.10199,1.621628 -7.38574,2.553774 -6.51866,1.418465 -10.06275,1.896544 -30.08906,4.058843 -11.06997,1.19526 -20.39632,2.218685 -20.72521,2.274276 -0.53572,0.09055 -0.60896,0.04639 -0.70337,-0.424156 z"
           id="path990" />
        <path
           style="fill:#000000;fill-opacity:1;stroke-width:0.188988"
           d="M 68.725762,94.842942 C 46.935295,92.463369 43.02886,91.907564 36.153247,90.208532 33.041992,89.439711 30.831121,88.591531 30.689723,88.1125 c -0.03537,-0.119816 0.343988,-0.353092 0.843011,-0.518387 2.053236,-0.680112 7.246097,-1.145784 14.892434,-1.33549 4.432432,-0.109969 44.415217,0.308187 44.566548,0.466093 0.04941,0.05155 -0.239098,2.304893 -0.641125,5.007422 -0.402026,2.70253 -0.733361,5.019997 -0.736301,5.149926 -0.0029,0.129929 -0.111649,0.225782 -0.24158,0.213006 -0.129929,-0.01278 -9.421056,-1.026234 -20.646948,-2.252128 z"
           id="path992" />
      </g>
    </g>
    <g
       id="layer3"
       inkscape:label="Skrzydła"
       style="display:inline;fill:#6d6d6d"
       transform="translate(-45.28609,56.702537)">
      <g
         id="g1015"
         transform="matrix(0.48856142,0,0,0.48856142,126.16284,-54.809214)"
         style="fill:#6d6d6d">
        <g
           id="g1019"
           transform="translate(-7.4835468,-53.988445)"
           style="fill:#6d6d6d">
          <path
             style="fill:#000000;fill-opacity:1;stroke-width:0.53454"
             d="m 34.464481,308.85684 c -39.775888,-3.41467 -108.882708,-7.83305 -174.915551,-11.18331 -47.71748,-2.42102 -61.84392,-3.55706 -73.32503,-5.89676 -14.66249,-2.98802 -19.45447,-7.40314 -22.31581,-20.56076 -1.83596,-8.44251 -5.93389,-36.87596 -5.87798,-40.78427 l 0.0436,-3.04792 0.82895,1.87088 c 1.86889,4.21793 4.61677,13.02118 6.34042,20.31248 3.03205,12.82606 3.36959,13.74117 6.2182,16.858 2.82255,3.08832 8.23158,6.05848 15.43478,8.47542 7.00041,2.34889 20.68399,3.56569 52.87491,4.70182 23.93494,0.84475 128.560033,0.8154 176.320415,-0.0495 19.802154,-0.35859 36.115523,-0.54037 36.251937,-0.40396 0.257635,0.25764 -0.685835,21.62171 -1.213575,27.48023 l -0.300945,3.34087 -2.496513,-0.0685 c -1.373085,-0.0377 -7.613605,-0.50781 -13.867818,-1.04472 z"
             id="path1009" />
          <path
             style="fill:#000000;fill-opacity:1;stroke-width:0.53454"
             d="m 67.193122,308.85684 c 39.775888,-3.41467 108.882708,-7.83305 174.915558,-11.18331 47.71748,-2.42102 61.84392,-3.55706 73.32503,-5.89676 14.66249,-2.98802 19.45447,-7.40314 22.31581,-20.56076 1.83596,-8.44251 5.93389,-36.87596 5.87798,-40.78428 l -0.0436,-3.04792 -0.82895,1.87088 c -1.86889,4.21793 -4.61677,13.02119 -6.34042,20.31249 -3.03205,12.82606 -3.36959,13.74117 -6.2182,16.858 -2.82255,3.08832 -8.23158,6.05848 -15.43478,8.47542 -7.00041,2.34889 -20.68399,3.56569 -52.87491,4.70182 -23.93494,0.84475 -128.56004,0.8154 -176.320422,-0.0495 -19.802156,-0.35859 -36.115526,-0.54037 -36.251936,-0.40396 -0.25764,0.25764 0.68583,21.62171 1.21357,27.48023 l 0.30095,3.34087 2.49651,-0.0685 c 1.37309,-0.0377 7.61361,-0.50781 13.86782,-1.04472 z"
             id="path1011" />
        </g>
      </g>
      <circle
         style="fill:#6d6d6d;fill-opacity:1;stroke-width:0.25129"
         id="path1095"
         cx="148.17551"
         cy="53.455593"
         r="21.830385" />
    </g>
    <g
       inkscape:label="Kadłub"
       id="layer1-5"
       style="display:inline;fill:url(#linearGradient2998);fill-opacity:1"
       transform="translate(-45.28609,56.702537)">
      <path
         id="path14"
         style="fill:url(#linearGradient2998);fill-opacity:1;fill-rule:evenodd;stroke-width:0.129265"
         d="m 148.12347,32.400862 a 21.022991,21.022991 0 0 0 -20.99195,21.023015 21.022991,21.022991 0 0 0 21.02276,21.02276 21.022991,21.022991 0 0 0 21.02302,-21.02276 21.022991,21.022991 0 0 0 -21.02302,-21.023015 21.022991,21.022991 0 0 0 -0.0308,0 z m -9.7373,11.335953 c 0.82773,-0.01908 1.51567,0.125196 5.06457,0.946006 2.36998,0.548137 4.40351,1.024452 4.51872,1.05861 0.18237,0.05407 0.1359,0.327914 -0.35877,2.115954 -0.31249,1.129616 -0.69228,2.509435 -0.84399,3.066014 -0.23774,0.872158 -0.31456,1.009998 -0.55543,0.997768 -0.15374,-0.007 -4.09892,-0.705161 -8.76707,-1.549665 -4.66814,-0.844521 -8.59909,-1.558063 -8.7355,-1.585516 -0.19081,-0.0385 0.0202,-0.273457 0.9142,-1.019484 2.92541,-2.441015 5.90245,-3.864779 8.39113,-4.013032 0.13269,-0.0073 0.2539,-0.01444 0.37214,-0.01664 z m 19.59127,0 c 0.11825,0.0033 0.23943,0.0086 0.37213,0.01664 2.48867,0.148253 5.46572,1.57201 8.39112,4.013024 0.89406,0.746011 1.10477,0.981078 0.91396,1.019476 -0.13647,0.02749 -4.06735,0.741012 -8.73551,1.585516 -4.66815,0.844521 -8.61333,1.541856 -8.76706,1.549676 -0.24088,0.0116 -0.31744,-0.12563 -0.55517,-0.997771 -0.15173,-0.556586 -0.53152,-1.936406 -0.84402,-3.066006 -0.49465,-1.788055 -0.54115,-2.061895 -0.35876,-2.115962 0.11522,-0.03409 2.14849,-0.510488 4.51848,-1.058617 3.5489,-0.820786 4.2371,-0.965092 5.06483,-0.946007 z" />
      <circle
         style="fill:url(#linearGradient2998);fill-opacity:1;stroke-width:0.382494"
         id="path1079"
         sodipodi:type="arc"
         sodipodi:cx="185.11461"
         sodipodi:cy="38.290401"
         sodipodi:rx="16.356382"
         sodipodi:ry="10.108802"
         sodipodi:start="0"
         sodipodi:end="0.017141175"
         sodipodi:open="true"
         sodipodi:arc-type="arc"
         d="m 201.47099,38.290401 a 16.356382,10.108802 0 0 1 -0.002,0.173269" />
      <circle
         style="fill:url(#linearGradient2998);fill-opacity:1;stroke-width:0.382494"
         id="path1081"
         sodipodi:type="arc"
         sodipodi:cx="193.03772"
         sodipodi:cy="26.815542"
         sodipodi:rx="52.729694"
         sodipodi:ry="52.729694"
         sodipodi:start="0"
         sodipodi:end="0.017141175"
         sodipodi:open="true"
         sodipodi:arc-type="arc"
         d="m 245.76741,26.815542 a 52.729694,52.729694 0 0 1 -0.008,0.903805" />
      <circle
         style="fill:url(#linearGradient2998);fill-opacity:1;stroke-width:0.264583"
         id="path1085"
         sodipodi:type="arc"
         sodipodi:cx="89.535286"
         sodipodi:cy="90.60437"
         sodipodi:rx="25.925144"
         sodipodi:ry="25.925144"
         sodipodi:start="0"
         sodipodi:end="0.017141175"
         sodipodi:open="true"
         sodipodi:arc-type="arc"
         d="m 115.46043,90.60437 a 25.925144,25.925144 0 0 1 -0.004,0.444366" />
    </g>
    <g
       id="layer6"
       inkscape:label="TEKST"
       transform="translate(-45.28609,56.702537)">
      <text
         xml:space="preserve"
         id="text1047"
         style="font-weight:bold;font-size:10.5833px;line-height:1.25;font-family:monospace;-inkscape-font-specification:'monospace, Bold';white-space:pre;shape-inside:url(#rect1049);" />
      <text
         xml:space="preserve"
         style="font-weight:bold;font-size:10.5833px;line-height:1.25;font-family:monospace;-inkscape-font-specification:'monospace, Bold';stroke-width:0.264583"
         x="-96.751572"
         y="106.37327"
         id="text1055"><tspan
           sodipodi:role="line"
           id="tspan1053"
           x="-96.751572"
           y="106.37327"
           style="stroke-width:0.264583" /></text>
      <text
         xml:space="preserve"
         style="font-weight:bold;font-size:34.4707px;line-height:1.25;font-family:monospace;-inkscape-font-specification:'monospace, Bold';stroke-width:0.233908"
         x="78.067268"
         y="98.380898"
         id="text1059"
         transform="scale(1.0578069,0.94535212)"><tspan
           sodipodi:role="line"
           id="tspan1057"
           x="78.067268"
           y="98.380898"
           style="font-size:34.4707px;stroke-width:0.233908">l</tspan></text>
      <text
         xml:space="preserve"
         style="font-weight:bold;font-size:24.8189px;line-height:1.25;font-family:monospace;-inkscape-font-specification:'monospace, Bold';stroke-width:0.129265"
         x="196.89891"
         y="93.004623"
         id="text1071"><tspan
           sodipodi:role="line"
           id="tspan1069"
           x="196.89891"
           y="93.004623"
           style="stroke-width:0.129265">k</tspan></text>
      <text
         xml:space="preserve"
         style="font-weight:bold;font-size:24.8189px;line-height:1.25;font-family:monospace;-inkscape-font-specification:'monospace, Bold';stroke-width:0.129265"
         x="125.90166"
         y="92.743439"
         id="text1063"><tspan
           sodipodi:role="line"
           id="tspan1061"
           x="125.90166"
           y="92.743439"
           style="stroke-width:0.129265">g</tspan></text>
      <text
         xml:space="preserve"
         style="font-weight:bold;font-size:24.8189px;line-height:1.25;font-family:monospace;-inkscape-font-specification:'monospace, Bold';stroke-width:0.129265"
         x="141.57098"
         y="92.743439"
         id="text1067"><tspan
           sodipodi:role="line"
           id="tspan1065"
           x="141.57098"
           y="92.743439"
           style="stroke-width:0.129265">bo</tspan></text>
    </g>
    <path
       style="fill:url(#radialGradient3062);fill-opacity:1;stroke-width:1.01015"
       d="m 249.43968,558.36358 c -12.10283,-2.21703 -13.51652,-3.34077 -10.6066,-8.43114 3.57979,-6.2622 0.31152,-7.91542 -7.08216,-3.58244 l -4.2292,2.47848 -3.09499,-3.2361 c -3.79094,-3.96377 -7.70942,-11.34982 -7.00091,-13.19618 0.28711,-0.7482 2.49379,-2.37826 4.90372,-3.62236 5.6779,-2.93114 8.92739,-5.98454 8.92739,-8.38864 0,-1.05652 -2.10204,-4.65271 -4.67121,-7.99154 l -4.67121,-6.07059 4.13406,-4.21229 c 3.86158,-3.93467 10.9007,-8.58052 11.58554,-7.64652 4.25909,5.80865 7.20174,9.00116 8.29666,9.00116 0.80451,0 2.28657,-2.83934 3.58276,-6.86388 l 2.21066,-6.86387 7.105,0.75916 c 11.68898,1.24897 13.11433,1.73244 12.47533,4.23161 -1.95628,7.65114 -1.9564,7.72752 -0.0118,7.70464 1.03704,-0.0122 3.89375,-0.93328 6.34824,-2.04683 l 4.46272,-2.02465 2.99097,2.80445 c 3.9358,3.69037 8.79172,10.33508 8.79172,12.03036 0,0.74066 -2.38649,2.53958 -5.3033,3.99761 -5.67691,2.8377 -10.85914,7.13681 -10.85914,9.00858 0,0.6303 2.50013,4.28341 5.55584,8.11803 3.05571,3.83461 5.55584,7.69451 5.55584,8.57754 0,1.92175 -3.93071,5.72633 -9.96178,9.64213 l -4.40594,2.86065 -2.16005,-2.98531 c -4.47595,-6.186 -7.39687,-8.88269 -8.96819,-8.27972 -0.86237,0.33092 -2.35066,2.95824 -3.30732,5.83847 -3.30008,9.9356 -3.08419,9.76462 -10.59267,8.38919 z"
       id="path1044"
       transform="scale(0.26458333)" />
    <path
       style="fill:url(#radialGradient3044);fill-opacity:1;stroke-width:1.01015"
       d="m 520.39466,556.36513 c -0.53612,-1.03785 -1.75379,-4.27349 -2.70592,-7.19031 -0.95214,-2.91681 -2.05578,-5.3033 -2.45255,-5.3033 -0.39677,0 -2.45469,2.27285 -4.57316,5.05076 -2.11847,2.77792 -4.3792,5.05077 -5.02385,5.05077 -2.81182,0 -14.77304,-9.44042 -14.77304,-11.65965 0,-0.64908 2.77198,-4.20528 6.15995,-7.90266 l 6.15996,-6.7225 -2.37189,-1.97532 c -1.30453,-1.08642 -5.44022,-3.60665 -9.19041,-5.6005 -3.75019,-1.99385 -6.81853,-4.13873 -6.81853,-4.7664 0,-2.40466 4.16214,-9.58177 7.34654,-12.66821 l 3.32785,-3.22547 4.71806,2.51161 c 6.08879,3.24132 9.25859,3.3662 8.29391,0.32677 -1.67789,-5.28655 -3.60461,-8.93291 -4.75955,-9.00754 -2.37829,-0.15366 13.91617,-3.92672 17.02958,-3.94327 4.03063,-0.0214 5.89657,2.16039 7.96094,9.30862 2.52768,8.7525 3.92241,8.78804 10.09529,0.25722 2.20554,-3.04802 4.29654,-5.54186 4.64666,-5.54186 1.10518,0 8.39691,5.67395 11.38432,8.85853 3.40227,3.62682 3.19922,4.23858 -4.7383,14.27568 l -5.11396,6.46669 3.8452,3.32391 c 2.11486,1.82815 5.84371,4.14568 8.28634,5.15007 2.44263,1.00438 4.44285,2.31643 4.44493,2.91566 0.007,1.92857 -6.15324,10.45604 -9.37373,12.97645 l -3.12268,2.44386 -4.828,-2.44653 c -2.6554,-1.3456 -5.07039,-2.44654 -5.36666,-2.44654 -1.06665,0 -0.50833,4.19958 0.92744,6.97606 1.45299,2.80976 1.43266,2.84494 -2.27284,3.93273 -2.05642,0.60368 -6.53529,1.40452 -9.95304,1.77964 -5.45059,0.59823 -6.33386,0.45018 -7.18886,-1.20497 z"
       id="path1046"
       transform="scale(0.26458333)" />
    <path
       style="fill:#3399cc;fill-opacity:0.917647;stroke-width:0.199586"
       d="m 92.172458,107.17248 c -4.701978,-0.88045 -8.681705,-1.62731 -8.843844,-1.65969 -0.389595,-0.0778 1.913006,-2.03131 3.66564,-3.10992 0.740228,-0.45556 1.964941,-1.09312 2.721581,-1.41681 1.210156,-0.51771 1.612213,-0.58792 3.341006,-0.58346 1.658411,0.004 2.578846,0.15671 5.894431,0.97614 2.161028,0.53408 3.971428,1.01468 4.023118,1.06799 0.10122,0.1044 -0.59039,3.0293 -1.20393,5.09157 -0.27533,0.92543 -0.46745,1.26253 -0.71292,1.25091 -0.18482,-0.009 -4.183107,-0.73628 -8.885082,-1.61673 z"
       id="path3064" />
    <path
       style="fill:#3399cc;fill-opacity:0.917647;stroke-width:0.197182"
       d="m 104.08796,107.40344 c -0.71937,-2.51716 -1.27239,-4.82968 -1.17818,-4.92674 0.26725,-0.27536 8.07589,-1.99838 9.42651,-2.08002 1.37503,-0.0831 1.77041,-0.0217 3.25344,0.50492 1.86498,0.66231 4.47712,2.25418 6.01248,3.66406 l 0.99644,0.915 -1.34871,0.2351 c -0.74179,0.1293 -4.75737,0.8659 -8.92349,1.63689 -4.16613,0.77098 -7.63724,1.40179 -7.71358,1.40179 -0.0764,0 -0.31255,-0.60795 -0.52491,-1.351 z"
       id="path3066" />
  </g>
</svg>
